<svg width="116" height="40" xmlns="http://www.w3.org/2000/svg"><g fill="none" fill-rule="evenodd"><path d="M62.215 28.889v-3.06h-8.278V10.405H50.04v18.484h12.176zm8.914.254c1.585 0 2.99-.373 4.216-1.117 1.226-.745 2.168-1.803 2.826-3.174.659-1.371.988-2.967.988-4.786v-.826c0-1.81-.336-3.408-1.007-4.792-.672-1.384-1.62-2.446-2.846-3.187-1.226-.74-2.627-1.11-4.203-1.11-1.577 0-2.978.37-4.204 1.11-1.226.741-2.174 1.803-2.846 3.187-.671 1.384-1.007 2.985-1.007 4.805v.914c.009 1.778.351 3.35 1.027 4.717.675 1.366 1.628 2.418 2.858 3.154 1.23.737 2.63 1.105 4.198 1.105zm0-3.123c-1.335 0-2.357-.52-3.067-1.562-.71-1.04-1.066-2.505-1.066-4.392v-.902c.01-1.92.369-3.379 1.079-4.373.71-.995 1.72-1.492 3.028-1.492 1.316 0 2.33.504 3.04 1.51.71 1.008 1.066 2.48 1.066 4.419v.901c-.009 1.921-.364 3.383-1.066 4.386-.702 1.003-1.706 1.505-3.014 1.505zm18.594 3.123c1.56 0 2.98-.227 4.262-.68 1.282-.452 2.274-1.09 2.976-1.91v-7.376h-7.446v2.806h3.547v3.186c-.623.61-1.667.914-3.131.914-1.455 0-2.56-.495-3.314-1.485-.753-.99-1.13-2.455-1.13-4.393v-1.18c.009-1.922.36-3.369 1.052-4.342.693-.973 1.703-1.46 3.028-1.46 1.04 0 1.856.245 2.45.736.593.491.976 1.266 1.15 2.323h3.794c-.234-1.997-.984-3.518-2.248-4.564-1.265-1.045-3.02-1.567-5.263-1.567-1.611 0-3.017.357-4.216 1.072-1.2.716-2.118 1.748-2.755 3.098-.637 1.35-.955 2.947-.955 4.792v1.257c.017 1.795.361 3.356 1.033 4.685.671 1.329 1.624 2.342 2.858 3.04 1.235.699 2.67 1.048 4.308 1.048zm17.906 0c1.585 0 2.99-.373 4.216-1.117 1.226-.745 2.168-1.803 2.827-3.174.658-1.371.987-2.967.987-4.786v-.826c0-1.81-.336-3.408-1.007-4.792-.671-1.384-1.62-2.446-2.846-3.187-1.225-.74-2.627-1.11-4.203-1.11-1.577 0-2.978.37-4.204 1.11-1.226.741-2.174 1.803-2.846 3.187-.67 1.384-1.007 2.985-1.007 4.805v.914c.01 1.778.351 3.35 1.027 4.717.676 1.366 1.629 2.418 2.859 3.154 1.23.737 2.629 1.105 4.197 1.105zm0-3.123c-1.334 0-2.357-.52-3.067-1.562-.71-1.04-1.065-2.505-1.065-4.392v-.902c.008-1.92.368-3.379 1.078-4.373.71-.995 1.72-1.492 3.028-1.492 1.316 0 2.33.504 3.04 1.51.71 1.008 1.066 2.48 1.066 4.419v.901c-.009 1.921-.364 3.383-1.066 4.386-.701 1.003-1.706 1.505-3.014 1.505z" fill="#42415B" fill-rule="nonzero"/><rect fill="#42415B" width="40.941" height="40" rx="20"/><path d="M20.47 29.444c2.654-.82 7.961-4.106 7.961-6.98v-7.66l-7.96-4.248-7.961 4.248v7.66c0 2.874 5.307 6.16 7.96 6.98z" fill="#FFF"/><path d="M20.47 26.667c1.896-.58 5.687-2.899 5.687-4.928v-5.407l-5.686-2.999-5.687 3v5.406c0 2.03 3.791 4.348 5.687 4.928z" fill="#42415B"/></g></svg>